# This file uses centimeters as units for non-parametric coordinates.

mtllib box_funnel.mtl
g default
v 0.346002 0.000000 -0.112423
v 0.294327 0.000000 -0.213841
v 0.213841 0.000000 -0.294327
v 0.112423 0.000000 -0.346003
v -0.000000 0.000000 -0.363808
v -0.112423 0.000000 -0.346003
v -0.213841 0.000000 -0.294327
v -0.294327 0.000000 -0.213841
v -0.346002 0.000000 -0.112423
v -0.363808 0.000000 -0.000000
v -0.346002 0.000000 0.112423
v -0.294327 0.000000 0.213841
v -0.213841 0.000000 0.294327
v -0.112423 0.000000 0.346002
v -0.000000 0.000000 0.363808
v 0.112423 0.000000 0.346002
v 0.213841 0.000000 0.294327
v 0.294327 0.000000 0.213841
v 0.346002 0.000000 0.112423
v 0.363808 0.000000 -0.000000
v 6.711377 9.039648 -2.180654
v 5.709033 9.039648 -4.147858
v 4.147859 9.039648 -5.709028
v 2.180654 9.039648 -6.711364
v 0.000001 9.039648 -7.056745
v -2.180654 9.039648 -6.711363
v -4.147858 9.039648 -5.709027
v -5.709027 9.039648 -4.147857
v -6.711363 9.039648 -2.180653
v -7.056744 9.039648 0.000001
v -6.711363 9.039648 2.180654
v -5.709027 9.039648 4.147858
v -4.147856 9.039648 5.709027
v -2.180653 9.039648 6.711363
v 0.000000 9.039648 7.056744
v 2.180654 9.039648 6.711363
v 4.147857 9.039648 5.709027
v 5.709027 9.039648 4.147858
v 6.711363 9.039648 2.180654
v 7.056744 9.039648 0.000001
v 0.717907 1.298956 -0.233262
v 0.610688 1.298956 -0.443691
v 0.443691 1.298956 -0.610688
v 0.233262 1.298956 -0.717907
v -0.000000 1.298956 -0.754852
v -0.233262 1.298956 -0.717907
v -0.443691 1.298956 -0.610688
v -0.610688 1.298956 -0.443691
v -0.717907 1.298956 -0.233262
v -0.754852 1.298956 -0.000000
v -0.717907 1.298956 0.233262
v -0.610688 1.298956 0.443691
v -0.443691 1.298956 0.610688
v -0.233262 1.298956 0.717907
v -0.000000 1.298956 0.754852
v 0.233262 1.298956 0.717907
v 0.443691 1.298956 0.610688
v 0.610688 1.298956 0.443691
v 0.717907 1.298956 0.233262
v 0.754851 1.298956 -0.000000
v 1.296466 2.751465 -0.421247
v 1.102839 2.751465 -0.801260
v 0.801260 2.751465 -1.102838
v 0.421247 2.751465 -1.296463
v 0.000000 2.751465 -1.363183
v -0.421247 2.751465 -1.296463
v -0.801260 2.751465 -1.102838
v -1.102838 2.751465 -0.801260
v -1.296463 2.751465 -0.421246
v -1.363182 2.751465 0.000000
v -1.296463 2.751465 0.421247
v -1.102838 2.751465 0.801259
v -0.801259 2.751465 1.102838
v -0.421246 2.751465 1.296462
v 0.000000 2.751465 1.363182
v 0.421246 2.751465 1.296462
v 0.801259 2.751465 1.102838
v 1.102838 2.751465 0.801259
v 1.296462 2.751465 0.421246
v 1.363182 2.751465 0.000000
v 2.361126 4.539269 -0.767175
v 2.008492 4.539269 -1.459255
v 1.459255 4.539269 -2.008490
v 0.767175 4.539269 -2.361122
v 0.000000 4.539269 -2.482629
v -0.767175 4.539269 -2.361122
v -1.459256 4.539269 -2.008490
v -2.008490 4.539269 -1.459255
v -2.361122 4.539269 -0.767174
v -2.482629 4.539269 0.000000
v -2.361122 4.539269 0.767175
v -2.008490 4.539269 1.459255
v -1.459256 4.539269 2.008490
v -0.767174 4.539269 2.361122
v 0.000000 4.539269 2.482629
v 0.767175 4.539269 2.361122
v 1.459255 4.539269 2.008490
v 2.008490 4.539269 1.459255
v 2.361122 4.539269 0.767175
v 2.482629 4.539269 0.000000
v 3.443871 5.786372 -1.118979
v 2.929529 5.786372 -2.128428
v 2.128429 5.786372 -2.929526
v 1.118979 5.786372 -3.443865
v 0.000000 5.786372 -3.621093
v -1.118979 5.786372 -3.443865
v -2.128428 5.786372 -2.929526
v -2.929526 5.786372 -2.128428
v -3.443865 5.786372 -1.118979
v -3.621093 5.786372 0.000001
v -3.443865 5.786372 1.118979
v -2.929526 5.786372 2.128428
v -2.128428 5.786372 2.929526
v -1.118979 5.786372 3.443865
v 0.000000 5.786372 3.621093
v 1.118979 5.786372 3.443865
v 2.128428 5.786372 2.929526
v 2.929526 5.786372 2.128428
v 3.443865 5.786372 1.118979
v 3.621092 5.786372 0.000001
v 4.632852 6.914095 -1.505302
v 3.940935 6.914095 -2.863259
v 2.863260 6.914095 -3.940932
v 1.505302 6.914095 -4.632843
v 0.000000 6.914095 -4.871258
v -1.505302 6.914095 -4.632843
v -2.863259 6.914095 -3.940931
v -3.940931 6.914095 -2.863259
v -4.632843 6.914095 -1.505301
v -4.871258 6.914095 0.000001
v -4.632843 6.914095 1.505302
v -3.940931 6.914095 2.863259
v -2.863258 6.914095 3.940932
v -1.505301 6.914095 4.632842
v 0.000000 6.914095 4.871258
v 1.505302 6.914095 4.632842
v 2.863259 6.914095 3.940932
v 3.940931 6.914095 2.863259
v 4.632842 6.914095 1.505302
v 4.871258 6.914095 0.000001
v 5.716849 7.879768 -1.857513
v 4.863037 7.879768 -3.533206
v 3.533207 7.879768 -4.863034
v 1.857513 7.879768 -5.716838
v 0.000001 7.879768 -6.011038
v -1.857513 7.879768 -5.716837
v -3.533206 7.879768 -4.863033
v -4.863033 7.879768 -3.533205
v -5.716837 7.879768 -1.857512
v -6.011037 7.879768 0.000001
v -5.716837 7.879768 1.857513
v -4.863033 7.879768 3.533206
v -3.533204 7.879768 4.863033
v -1.857512 7.879768 5.716837
v 0.000000 7.879768 6.011037
v 1.857513 7.879768 5.716837
v 3.533205 7.879768 4.863033
v 4.863033 7.879768 3.533206
v 5.716837 7.879768 1.857513
v 6.011037 7.879768 0.000001
vt 0.375000 0.312500
vt 0.387500 0.312500
vt 0.400000 0.312500
vt 0.412500 0.312500
vt 0.425000 0.312500
vt 0.437500 0.312500
vt 0.450000 0.312500
vt 0.462500 0.312500
vt 0.475000 0.312500
vt 0.487500 0.312500
vt 0.500000 0.312500
vt 0.512500 0.312500
vt 0.525000 0.312500
vt 0.537500 0.312500
vt 0.550000 0.312500
vt 0.562500 0.312500
vt 0.575000 0.312500
vt 0.587500 0.312500
vt 0.600000 0.312500
vt 0.612500 0.312500
vt 0.625000 0.312500
vt 0.375000 0.688440
vt 0.387500 0.688440
vt 0.400000 0.688440
vt 0.412500 0.688440
vt 0.425000 0.688440
vt 0.437500 0.688440
vt 0.450000 0.688440
vt 0.462500 0.688440
vt 0.475000 0.688440
vt 0.487500 0.688440
vt 0.500000 0.688440
vt 0.512500 0.688440
vt 0.525000 0.688440
vt 0.537500 0.688440
vt 0.550000 0.688440
vt 0.562500 0.688440
vt 0.575000 0.688440
vt 0.587500 0.688440
vt 0.600000 0.688440
vt 0.612500 0.688440
vt 0.625000 0.688440
vt 0.625000 0.353867
vt 0.375000 0.353867
vt 0.387500 0.353867
vt 0.400000 0.353867
vt 0.412500 0.353867
vt 0.425000 0.353867
vt 0.437500 0.353867
vt 0.450000 0.353867
vt 0.462500 0.353867
vt 0.475000 0.353867
vt 0.487500 0.353867
vt 0.500000 0.353867
vt 0.512500 0.353867
vt 0.525000 0.353867
vt 0.537500 0.353867
vt 0.550000 0.353867
vt 0.562500 0.353867
vt 0.575000 0.353867
vt 0.587500 0.353867
vt 0.600000 0.353867
vt 0.612500 0.353867
vt 0.625000 0.433396
vt 0.375000 0.433396
vt 0.387500 0.433396
vt 0.400000 0.433396
vt 0.412500 0.433396
vt 0.425000 0.433396
vt 0.437500 0.433396
vt 0.450000 0.433396
vt 0.462500 0.433396
vt 0.475000 0.433396
vt 0.487500 0.433396
vt 0.500000 0.433396
vt 0.512500 0.433396
vt 0.525000 0.433396
vt 0.537500 0.433396
vt 0.550000 0.433396
vt 0.562500 0.433396
vt 0.575000 0.433396
vt 0.587500 0.433396
vt 0.600000 0.433396
vt 0.612500 0.433396
vt 0.625000 0.523039
vt 0.375000 0.523039
vt 0.387500 0.523039
vt 0.400000 0.523039
vt 0.412500 0.523039
vt 0.425000 0.523039
vt 0.437500 0.523039
vt 0.450000 0.523039
vt 0.462500 0.523039
vt 0.475000 0.523039
vt 0.487500 0.523039
vt 0.500000 0.523039
vt 0.512500 0.523039
vt 0.525000 0.523039
vt 0.537500 0.523039
vt 0.550000 0.523039
vt 0.562500 0.523039
vt 0.575000 0.523039
vt 0.587500 0.523039
vt 0.600000 0.523039
vt 0.612500 0.523039
vt 0.625000 0.603166
vt 0.375000 0.603166
vt 0.387500 0.603166
vt 0.400000 0.603166
vt 0.412500 0.603166
vt 0.425000 0.603166
vt 0.437500 0.603166
vt 0.450000 0.603166
vt 0.462500 0.603166
vt 0.475000 0.603166
vt 0.487500 0.603166
vt 0.500000 0.603166
vt 0.512500 0.603166
vt 0.525000 0.603166
vt 0.537500 0.603166
vt 0.550000 0.603166
vt 0.562500 0.603166
vt 0.575000 0.603166
vt 0.587500 0.603166
vt 0.600000 0.603166
vt 0.612500 0.603166
vt 0.625000 0.641246
vt 0.375000 0.641246
vt 0.387500 0.641246
vt 0.400000 0.641246
vt 0.412500 0.641246
vt 0.425000 0.641246
vt 0.437500 0.641246
vt 0.450000 0.641246
vt 0.462500 0.641246
vt 0.475000 0.641246
vt 0.487500 0.641246
vt 0.500000 0.641246
vt 0.512500 0.641246
vt 0.525000 0.641246
vt 0.537500 0.641246
vt 0.550000 0.641246
vt 0.562500 0.641246
vt 0.575000 0.641246
vt 0.587500 0.641246
vt 0.600000 0.641246
vt 0.612500 0.641246
vt 0.625000 0.666120
vt 0.375000 0.666120
vt 0.387500 0.666120
vt 0.400000 0.666120
vt 0.412500 0.666120
vt 0.425000 0.666120
vt 0.437500 0.666120
vt 0.450000 0.666120
vt 0.462500 0.666120
vt 0.475000 0.666120
vt 0.487500 0.666120
vt 0.500000 0.666120
vt 0.512500 0.666120
vt 0.525000 0.666120
vt 0.537500 0.666120
vt 0.550000 0.666120
vt 0.562500 0.666120
vt 0.575000 0.666120
vt 0.587500 0.666120
vt 0.600000 0.666120
vt 0.612500 0.666120
vn 0.670439 -0.709266 -0.217837
vn 0.570309 -0.709266 -0.414355
vn 0.600869 -0.669607 -0.436558
vn 0.706365 -0.669607 -0.229510
vn 0.414353 -0.709265 -0.570311
vn 0.436556 -0.669607 -0.600870
vn 0.217838 -0.709265 -0.670440
vn 0.229511 -0.669606 -0.706365
vn -0.000000 -0.709265 -0.704942
vn -0.000000 -0.669607 -0.742716
vn -0.217838 -0.709265 -0.670440
vn -0.229511 -0.669606 -0.706365
vn -0.414354 -0.709265 -0.570311
vn -0.436557 -0.669607 -0.600871
vn -0.570311 -0.709265 -0.414354
vn -0.600870 -0.669606 -0.436557
vn -0.670440 -0.709265 -0.217839
vn -0.706365 -0.669606 -0.229512
vn -0.704942 -0.709265 -0.000000
vn -0.742716 -0.669606 -0.000000
vn -0.670440 -0.709265 0.217839
vn -0.706365 -0.669606 0.229512
vn -0.570310 -0.709265 0.414354
vn -0.600870 -0.669607 0.436557
vn -0.414353 -0.709265 0.570311
vn -0.436557 -0.669607 0.600870
vn -0.217839 -0.709265 0.670440
vn -0.229511 -0.669607 0.706365
vn 0.000000 -0.709265 0.704942
vn 0.000000 -0.669607 0.742716
vn 0.217838 -0.709265 0.670440
vn 0.229511 -0.669607 0.706365
vn 0.414354 -0.709265 0.570310
vn 0.436557 -0.669607 0.600870
vn 0.570310 -0.709265 0.414354
vn 0.600870 -0.669607 0.436557
vn 0.670440 -0.709265 0.217839
vn 0.706365 -0.669606 0.229512
vn 0.704942 -0.709265 0.000002
vn 0.742716 -0.669607 0.000002
vn 0.910685 -0.288266 -0.295898
vn 0.774675 -0.288265 -0.562834
vn 0.755569 -0.357444 -0.548953
vn 0.888225 -0.357445 -0.288600
vn 0.562834 -0.288265 -0.774675
vn 0.548952 -0.357444 -0.755570
vn 0.295899 -0.288265 -0.910685
vn 0.288601 -0.357444 -0.888225
vn -0.000000 -0.288265 -0.957551
vn 0.000000 -0.357444 -0.933935
vn -0.295899 -0.288265 -0.910685
vn -0.288601 -0.357444 -0.888225
vn -0.562834 -0.288265 -0.774675
vn -0.548953 -0.357444 -0.755569
vn -0.774675 -0.288265 -0.562834
vn -0.755570 -0.357444 -0.548952
vn -0.910685 -0.288265 -0.295899
vn -0.888225 -0.357444 -0.288601
vn -0.957551 -0.288265 -0.000000
vn -0.933935 -0.357444 -0.000000
vn -0.910685 -0.288265 0.295899
vn -0.888225 -0.357444 0.288601
vn -0.774675 -0.288265 0.562834
vn -0.755569 -0.357444 0.548953
vn -0.562834 -0.288265 0.774675
vn -0.548952 -0.357444 0.755570
vn -0.295899 -0.288265 0.910685
vn -0.288601 -0.357444 0.888225
vn 0.000000 -0.288265 0.957551
vn 0.000000 -0.357444 0.933935
vn 0.295899 -0.288265 0.910685
vn 0.288601 -0.357444 0.888225
vn 0.562834 -0.288265 0.774675
vn 0.548952 -0.357444 0.755569
vn 0.774675 -0.288265 0.562834
vn 0.755569 -0.357444 0.548952
vn 0.910685 -0.288265 0.295899
vn 0.888225 -0.357444 0.288601
vn 0.957551 -0.288265 0.000001
vn 0.933935 -0.357444 0.000002
vn 0.704060 -0.492582 -0.511530
vn 0.827673 -0.492582 -0.268925
vn 0.511528 -0.492582 -0.704061
vn 0.268927 -0.492581 -0.827673
vn -0.000000 -0.492581 -0.870266
vn -0.268927 -0.492581 -0.827673
vn -0.511529 -0.492582 -0.704061
vn -0.704061 -0.492582 -0.511529
vn -0.827673 -0.492581 -0.268927
vn -0.870266 -0.492581 0.000000
vn -0.827673 -0.492581 0.268927
vn -0.704061 -0.492582 0.511529
vn -0.511529 -0.492582 0.704061
vn -0.268927 -0.492581 0.827673
vn -0.000000 -0.492581 0.870266
vn 0.268927 -0.492581 0.827673
vn 0.511529 -0.492582 0.704061
vn 0.704061 -0.492582 0.511529
vn 0.827673 -0.492581 0.268926
vn 0.870266 -0.492581 0.000003
vn 0.636268 -0.617628 -0.462276
vn 0.747978 -0.617628 -0.243031
vn 0.462275 -0.617628 -0.636269
vn 0.243032 -0.617628 -0.747978
vn -0.000000 -0.617627 -0.786471
vn -0.243032 -0.617628 -0.747978
vn -0.462275 -0.617628 -0.636269
vn -0.636269 -0.617628 -0.462275
vn -0.747978 -0.617627 -0.243032
vn -0.786471 -0.617627 0.000000
vn -0.747978 -0.617628 0.243032
vn -0.636269 -0.617628 0.462275
vn -0.462275 -0.617628 0.636269
vn -0.243032 -0.617628 0.747978
vn -0.000000 -0.617627 0.786471
vn 0.243032 -0.617628 0.747978
vn 0.462275 -0.617628 0.636269
vn 0.636269 -0.617628 0.462275
vn 0.747978 -0.617628 0.243032
vn 0.786471 -0.617627 0.000002
vn 0.563921 -0.717027 -0.409714
vn 0.662930 -0.717027 -0.215397
vn 0.409712 -0.717027 -0.563922
vn 0.215398 -0.717027 -0.662930
vn -0.000000 -0.717026 -0.697046
vn -0.215398 -0.717027 -0.662930
vn -0.409713 -0.717027 -0.563922
vn -0.563922 -0.717027 -0.409713
vn -0.662930 -0.717027 -0.215399
vn -0.697046 -0.717027 0.000000
vn -0.662930 -0.717027 0.215399
vn -0.563922 -0.717027 0.409713
vn -0.409712 -0.717027 0.563922
vn -0.215398 -0.717027 0.662930
vn -0.000000 -0.717027 0.697046
vn 0.215398 -0.717027 0.662930
vn 0.409712 -0.717027 0.563922
vn 0.563922 -0.717027 0.409713
vn 0.662930 -0.717027 0.215398
vn 0.697046 -0.717027 0.000002
vn 0.531181 -0.754260 -0.385926
vn 0.624441 -0.754260 -0.202892
vn 0.385925 -0.754260 -0.531182
vn 0.202893 -0.754259 -0.624442
vn -0.000000 -0.754259 -0.656577
vn -0.202893 -0.754259 -0.624442
vn -0.385925 -0.754259 -0.531182
vn -0.531182 -0.754259 -0.385925
vn -0.624442 -0.754259 -0.202893
vn -0.656577 -0.754259 0.000000
vn -0.624442 -0.754259 0.202893
vn -0.531182 -0.754259 0.385926
vn -0.385925 -0.754259 0.531182
vn -0.202893 -0.754259 0.624442
vn 0.000000 -0.754259 0.656577
vn 0.202893 -0.754259 0.624442
vn 0.385925 -0.754260 0.531182
vn 0.531182 -0.754259 0.385925
vn 0.624442 -0.754259 0.202893
vn 0.656577 -0.754259 0.000002
s 1
g pCylinder1
usemtl initialShadingGroup
f 141/149/1 142/150/2 22/23/3 21/22/4
f 142/150/2 143/151/5 23/24/6 22/23/3
f 143/151/5 144/152/7 24/25/8 23/24/6
f 144/152/7 145/153/9 25/26/10 24/25/8
f 145/153/9 146/154/11 26/27/12 25/26/10
f 146/154/11 147/155/13 27/28/14 26/27/12
f 147/155/13 148/156/15 28/29/16 27/28/14
f 148/156/15 149/157/17 29/30/18 28/29/16
f 149/157/17 150/158/19 30/31/20 29/30/18
f 150/158/19 151/159/21 31/32/22 30/31/20
f 151/159/21 152/160/23 32/33/24 31/32/22
f 152/160/23 153/161/25 33/34/26 32/33/24
f 153/161/25 154/162/27 34/35/28 33/34/26
f 154/162/27 155/163/29 35/36/30 34/35/28
f 155/163/29 156/164/31 36/37/32 35/36/30
f 156/164/31 157/165/33 37/38/34 36/37/32
f 157/165/33 158/166/35 38/39/36 37/38/34
f 158/166/35 159/167/37 39/40/38 38/39/36
f 159/167/37 160/168/39 40/41/40 39/40/38
f 160/168/39 141/148/1 21/42/4 40/41/40
f 1/1/41 2/2/42 42/45/43 41/44/44
f 2/2/42 3/3/45 43/46/46 42/45/43
f 3/3/45 4/4/47 44/47/48 43/46/46
f 4/4/47 5/5/49 45/48/50 44/47/48
f 5/5/49 6/6/51 46/49/52 45/48/50
f 6/6/51 7/7/53 47/50/54 46/49/52
f 7/7/53 8/8/55 48/51/56 47/50/54
f 8/8/55 9/9/57 49/52/58 48/51/56
f 9/9/57 10/10/59 50/53/60 49/52/58
f 10/10/59 11/11/61 51/54/62 50/53/60
f 11/11/61 12/12/63 52/55/64 51/54/62
f 12/12/63 13/13/65 53/56/66 52/55/64
f 13/13/65 14/14/67 54/57/68 53/56/66
f 14/14/67 15/15/69 55/58/70 54/57/68
f 15/15/69 16/16/71 56/59/72 55/58/70
f 16/16/71 17/17/73 57/60/74 56/59/72
f 17/17/73 18/18/75 58/61/76 57/60/74
f 18/18/75 19/19/77 59/62/78 58/61/76
f 19/19/77 20/20/79 60/63/80 59/62/78
f 20/20/79 1/21/41 41/43/44 60/63/80
f 41/44/44 42/45/43 62/66/81 61/65/82
f 42/45/43 43/46/46 63/67/83 62/66/81
f 43/46/46 44/47/48 64/68/84 63/67/83
f 44/47/48 45/48/50 65/69/85 64/68/84
f 45/48/50 46/49/52 66/70/86 65/69/85
f 46/49/52 47/50/54 67/71/87 66/70/86
f 47/50/54 48/51/56 68/72/88 67/71/87
f 48/51/56 49/52/58 69/73/89 68/72/88
f 49/52/58 50/53/60 70/74/90 69/73/89
f 50/53/60 51/54/62 71/75/91 70/74/90
f 51/54/62 52/55/64 72/76/92 71/75/91
f 52/55/64 53/56/66 73/77/93 72/76/92
f 53/56/66 54/57/68 74/78/94 73/77/93
f 54/57/68 55/58/70 75/79/95 74/78/94
f 55/58/70 56/59/72 76/80/96 75/79/95
f 56/59/72 57/60/74 77/81/97 76/80/96
f 57/60/74 58/61/76 78/82/98 77/81/97
f 58/61/76 59/62/78 79/83/99 78/82/98
f 59/62/78 60/63/80 80/84/100 79/83/99
f 60/63/80 41/43/44 61/64/82 80/84/100
f 61/65/82 62/66/81 82/87/101 81/86/102
f 62/66/81 63/67/83 83/88/103 82/87/101
f 63/67/83 64/68/84 84/89/104 83/88/103
f 64/68/84 65/69/85 85/90/105 84/89/104
f 65/69/85 66/70/86 86/91/106 85/90/105
f 66/70/86 67/71/87 87/92/107 86/91/106
f 67/71/87 68/72/88 88/93/108 87/92/107
f 68/72/88 69/73/89 89/94/109 88/93/108
f 69/73/89 70/74/90 90/95/110 89/94/109
f 70/74/90 71/75/91 91/96/111 90/95/110
f 71/75/91 72/76/92 92/97/112 91/96/111
f 72/76/92 73/77/93 93/98/113 92/97/112
f 73/77/93 74/78/94 94/99/114 93/98/113
f 74/78/94 75/79/95 95/100/115 94/99/114
f 75/79/95 76/80/96 96/101/116 95/100/115
f 76/80/96 77/81/97 97/102/117 96/101/116
f 77/81/97 78/82/98 98/103/118 97/102/117
f 78/82/98 79/83/99 99/104/119 98/103/118
f 79/83/99 80/84/100 100/105/120 99/104/119
f 80/84/100 61/64/82 81/85/102 100/105/120
f 81/86/102 82/87/101 102/108/121 101/107/122
f 82/87/101 83/88/103 103/109/123 102/108/121
f 83/88/103 84/89/104 104/110/124 103/109/123
f 84/89/104 85/90/105 105/111/125 104/110/124
f 85/90/105 86/91/106 106/112/126 105/111/125
f 86/91/106 87/92/107 107/113/127 106/112/126
f 87/92/107 88/93/108 108/114/128 107/113/127
f 88/93/108 89/94/109 109/115/129 108/114/128
f 89/94/109 90/95/110 110/116/130 109/115/129
f 90/95/110 91/96/111 111/117/131 110/116/130
f 91/96/111 92/97/112 112/118/132 111/117/131
f 92/97/112 93/98/113 113/119/133 112/118/132
f 93/98/113 94/99/114 114/120/134 113/119/133
f 94/99/114 95/100/115 115/121/135 114/120/134
f 95/100/115 96/101/116 116/122/136 115/121/135
f 96/101/116 97/102/117 117/123/137 116/122/136
f 97/102/117 98/103/118 118/124/138 117/123/137
f 98/103/118 99/104/119 119/125/139 118/124/138
f 99/104/119 100/105/120 120/126/140 119/125/139
f 100/105/120 81/85/102 101/106/122 120/126/140
f 101/107/122 102/108/121 122/129/141 121/128/142
f 102/108/121 103/109/123 123/130/143 122/129/141
f 103/109/123 104/110/124 124/131/144 123/130/143
f 104/110/124 105/111/125 125/132/145 124/131/144
f 105/111/125 106/112/126 126/133/146 125/132/145
f 106/112/126 107/113/127 127/134/147 126/133/146
f 107/113/127 108/114/128 128/135/148 127/134/147
f 108/114/128 109/115/129 129/136/149 128/135/148
f 109/115/129 110/116/130 130/137/150 129/136/149
f 110/116/130 111/117/131 131/138/151 130/137/150
f 111/117/131 112/118/132 132/139/152 131/138/151
f 112/118/132 113/119/133 133/140/153 132/139/152
f 113/119/133 114/120/134 134/141/154 133/140/153
f 114/120/134 115/121/135 135/142/155 134/141/154
f 115/121/135 116/122/136 136/143/156 135/142/155
f 116/122/136 117/123/137 137/144/157 136/143/156
f 117/123/137 118/124/138 138/145/158 137/144/157
f 118/124/138 119/125/139 139/146/159 138/145/158
f 119/125/139 120/126/140 140/147/160 139/146/159
f 120/126/140 101/106/122 121/127/142 140/147/160
f 121/128/142 122/129/141 142/150/2 141/149/1
f 122/129/141 123/130/143 143/151/5 142/150/2
f 123/130/143 124/131/144 144/152/7 143/151/5
f 124/131/144 125/132/145 145/153/9 144/152/7
f 125/132/145 126/133/146 146/154/11 145/153/9
f 126/133/146 127/134/147 147/155/13 146/154/11
f 127/134/147 128/135/148 148/156/15 147/155/13
f 128/135/148 129/136/149 149/157/17 148/156/15
f 129/136/149 130/137/150 150/158/19 149/157/17
f 130/137/150 131/138/151 151/159/21 150/158/19
f 131/138/151 132/139/152 152/160/23 151/159/21
f 132/139/152 133/140/153 153/161/25 152/160/23
f 133/140/153 134/141/154 154/162/27 153/161/25
f 134/141/154 135/142/155 155/163/29 154/162/27
f 135/142/155 136/143/156 156/164/31 155/163/29
f 136/143/156 137/144/157 157/165/33 156/164/31
f 137/144/157 138/145/158 158/166/35 157/165/33
f 138/145/158 139/146/159 159/167/37 158/166/35
f 139/146/159 140/147/160 160/168/39 159/167/37
f 140/147/160 121/127/142 141/148/1 160/168/39
